<svg id="Layer_1" data-name="Layer 1" xmlns="http://www.w3.org/2000/svg" viewBox="0 0 102.76 12.17"><defs><style>.cls-1{fill:#fff;}</style></defs><path class="cls-1" d="M61.4,7.66c.08-1.95,2.26-3.28,3.67-1.64.47.55.31,2-.62,1.48a.72.72,0,0,1,0-1.33c-.86-.86-1.79-.23-2.18.7a2,2,0,0,0,.62,2.5c1.4,1.33,3.82,1.09,5.62.62a19.11,19.11,0,0,0,5.3-2c.39-.23.78-.31,1.17-.55a8.58,8.58,0,0,0,1.17-.62c.86-.55,1.72-1,2.57-1.48s1.79-1.09,2.73-1.56c.47-.23.86-.55,1.25-.7a2.48,2.48,0,0,1,.7-.23c.16-.08.23-.31.39-.39a21.78,21.78,0,0,1,2.89-1.09c1-.39,2.11-.55,3.12-.94A6,6,0,0,1,91,.25,6.38,6.38,0,0,1,92.6,0a15.14,15.14,0,0,1,3.28.16,8.92,8.92,0,0,1,5.07,2.65l.31.55c.16.31.39.47.55.78a6,6,0,0,1,.47,1c.16.47.16.86.31,1.25a4.47,4.47,0,0,1-1,4.13,4.7,4.7,0,0,1-6.63.47,3.37,3.37,0,0,1-.78-3.82c.16-.08.16-.23.23-.31a.27.27,0,0,0-.08-.16,2.47,2.47,0,0,0-1.17-1.48,3.3,3.3,0,0,0-1.95-.16,2.86,2.86,0,0,0-1.33.78,2.59,2.59,0,0,0-.23,3c.62.62,1.87.94,2.18-.16-.78.31-1.4-.78-.62-1.17.94-.47,1.17.7,1.17,1.33,0,.86-1,1.25-1.72,1.17-.94-.08-1.4-.86-1.87-1.56a2.7,2.7,0,0,1,.31-2.42A3.62,3.62,0,0,1,91.2,4.54a3.46,3.46,0,0,1,3.67,1.64,2.15,2.15,0,0,1,.62-.47,2.2,2.2,0,0,1,2.18.16,1.73,1.73,0,0,1,1,1.48c0,.47-.08,1.17-.7,1.33-1.64.55-.94-2.26.16-1.17.08-1.09-1-1.33-1.87-1.25a1.91,1.91,0,0,0-1.79,2A3.17,3.17,0,0,0,96,11.17a3.89,3.89,0,0,0,3.59.16c.31-.23.7-.31.94-.62l.7-.78A2.71,2.71,0,0,0,102,8.36a5,5,0,0,0-.47-3.51A6.34,6.34,0,0,0,98.92,2,14.43,14.43,0,0,0,94.16.64a20.35,20.35,0,0,0-6.86,1c-1.09.31-2,.94-3.12,1.33a9.8,9.8,0,0,0-2.5,1.4A6.91,6.91,0,0,0,80.35,5l-1.09.7-2.42,1.4c-.94.47-1.95,1-2.89,1.4a11.06,11.06,0,0,0-1.4.62c-.39.23-.86.31-1.32.55a12.6,12.6,0,0,1-3,.94l-1.33.31c-.55.08-1-.23-1.56-.16a5,5,0,0,1-3-.93,2.69,2.69,0,0,1-.94-2.18"/><path class="cls-1" d="M41.36,7.66C41.28,5.71,39.09,4.38,37.69,6c-.47.55-.31,2,.62,1.48a.72.72,0,0,0,0-1.33c.86-.86,1.79-.23,2.18.7a2,2,0,0,1-.62,2.5c-1.4,1.33-3.82,1.09-5.62.62A19.11,19.11,0,0,1,29,8c-.39-.23-.78-.31-1.17-.55a8.58,8.58,0,0,1-1.17-.62c-.86-.55-1.72-1-2.57-1.48s-1.79-1.09-2.73-1.56c-.47-.23-.86-.55-1.25-.7a2.48,2.48,0,0,0-.7-.23c-.16-.08-.23-.31-.39-.39a21.78,21.78,0,0,0-2.89-1.09C15.07.95,14,.79,13,.4A6,6,0,0,0,11.79.25,6.38,6.38,0,0,0,10.16,0,15.14,15.14,0,0,0,6.88.17,8.92,8.92,0,0,0,1.81,2.82l-.31.55c-.16.31-.39.47-.55.78a6,6,0,0,0-.47,1C.33,5.63.33,6,.17,6.41a4.47,4.47,0,0,0,1,4.13A4.7,4.7,0,0,0,7.81,11,3.37,3.37,0,0,0,8.6,7.19c-.16-.08-.16-.23-.23-.31a.27.27,0,0,1,.08-.16A2.47,2.47,0,0,1,9.61,5.24a3.3,3.3,0,0,1,1.95-.16,2.86,2.86,0,0,1,1.33.78,2.59,2.59,0,0,1,.23,3c-.62.62-1.87.94-2.18-.16.78.31,1.4-.78.62-1.17-.94-.47-1.17.7-1.17,1.33,0,.86,1,1.25,1.72,1.17C13,10,13.51,9.22,14,8.51a2.7,2.7,0,0,0-.31-2.42,3.62,3.62,0,0,0-2.11-1.56A3.46,3.46,0,0,0,7.89,6.17a2.15,2.15,0,0,0-.62-.47,2.2,2.2,0,0,0-2.18.16,1.73,1.73,0,0,0-1,1.48c0,.47.08,1.17.7,1.33,1.64.55.94-2.26-.16-1.17-.08-1.09,1-1.33,1.87-1.25a1.91,1.91,0,0,1,1.79,2,3.17,3.17,0,0,1-1.56,2.89,3.89,3.89,0,0,1-3.59.16c-.31-.23-.7-.31-.94-.62l-.7-.78A2.71,2.71,0,0,1,.72,8.36a5,5,0,0,1,.47-3.51A6.34,6.34,0,0,1,3.84,2,14.43,14.43,0,0,1,8.6.64a20.35,20.35,0,0,1,6.86,1c1.09.31,2,.94,3.12,1.33a9.8,9.8,0,0,1,2.5,1.4A6.91,6.91,0,0,1,22.4,5l1.09.7,2.42,1.4c.94.47,1.95,1,2.89,1.4a11.06,11.06,0,0,1,1.4.62c.39.23.86.31,1.32.55a12.6,12.6,0,0,0,3,.94l1.33.31c.55.08,1-.23,1.56-.16a5,5,0,0,0,3-.93,2.69,2.69,0,0,0,.94-2.18"/></svg>