<?xml version="1.0" standalone="no"?>
<!DOCTYPE svg PUBLIC "-//W3C//DTD SVG 20010904//EN"
 "http://www.w3.org/TR/2001/REC-SVG-20010904/DTD/svg10.dtd">
<svg version="1.0" xmlns="http://www.w3.org/2000/svg"
 width="1024.000000pt" height="1024.000000pt" viewBox="0 0 1024.000000 1024.000000"
 preserveAspectRatio="xMidYMid meet">

<g transform="translate(0.000000,1024.000000) scale(0.100000,-0.100000)"
fill="currentColor"stroke="none">
<path d="M5234 9440 c-324 -26 -697 -117 -1042 -256 -272 -110 -477 -234 -638
-388 -121 -114 -208 -233 -280 -381 -54 -110 -140 -375 -131 -399 3 -8 40 -21
81 -31 42 -9 76 -18 76 -21 0 -2 -11 -43 -26 -91 -52 -179 -48 -369 14 -743
23 -135 47 -285 54 -335 l13 -90 -61 -61 c-112 -112 -156 -245 -157 -479 0
-165 10 -233 55 -375 55 -174 140 -310 280 -449 39 -39 91 -84 115 -99 26 -16
45 -36 48 -52 3 -14 1 -191 -5 -395 -5 -203 -13 -496 -16 -649 l-7 -279 43 24
c23 13 61 40 84 60 l41 37 -2 623 c-1 343 -5 652 -8 686 -6 61 -7 61 -60 97
-205 136 -353 414 -371 695 -12 192 34 353 117 408 55 36 135 30 201 -15 50
-34 118 -123 161 -207 56 -113 64 -170 92 -700 8 -154 24 -449 35 -655 30
-565 42 -676 86 -800 85 -245 195 -396 434 -597 87 -72 321 -235 328 -228 2 2
-5 16 -16 30 -49 63 -112 271 -111 370 l0 50 24 -80 c60 -203 148 -354 287
-494 76 -77 94 -89 218 -148 331 -159 731 -293 991 -332 68 -11 83 -9 174 14
181 46 331 131 479 275 195 189 305 392 373 690 13 58 17 123 16 285 0 212
-11 309 -57 498 l-14 58 60 30 c116 58 211 176 233 288 7 30 5 33 -11 26 -74
-30 -178 -11 -223 40 -47 54 -56 95 -55 255 1 123 6 166 33 288 18 84 31 171
31 212 0 39 4 70 9 70 4 0 37 27 73 60 111 102 163 233 204 519 l18 124 53 23
53 24 0 109 0 109 -87 32 c-163 59 -319 80 -587 80 -239 0 -353 -14 -521 -64
-139 -41 -142 -41 -300 -41 -152 0 -165 2 -265 32 -136 42 -237 59 -445 74
-362 25 -858 -9 -1167 -80 l-78 -18 0 21 c0 37 47 119 116 202 91 108 113 143
130 205 26 101 17 200 -42 432 -37 149 -37 180 -3 249 61 120 223 146 553 88
177 -30 643 -108 966 -161 143 -24 201 -29 255 -24 168 15 335 62 475 132 l85
43 38 -38 c21 -20 65 -76 97 -123 96 -143 150 -309 196 -601 l27 -168 36 0 36
0 1 153 c0 94 9 215 22 317 12 91 22 198 22 238 0 154 -53 277 -163 377 l-70
64 23 88 c77 300 -13 585 -256 812 -280 262 -720 420 -1214 435 -91 2 -215 1
-276 -4z m528 -254 c58 -14 137 -38 175 -53 151 -64 298 -182 383 -309 74
-111 131 -307 129 -444 -1 -53 -2 -49 -44 107 -33 124 -90 229 -186 342 -128
150 -300 262 -524 340 -49 18 -91 34 -94 36 -11 12 64 3 161 -19z m-621 -91
c369 -64 594 -216 734 -494 33 -66 103 -262 119 -333 11 -50 -8 -30 -49 50
-109 214 -311 450 -485 569 -139 94 -315 169 -495 212 -39 9 -38 9 26 10 37 1
104 -6 150 -14z m-521 -244 c276 -49 558 -197 717 -377 63 -71 182 -233 183
-248 0 -5 -37 27 -82 72 -170 165 -300 259 -493 354 -206 101 -408 155 -697
185 -92 9 -166 19 -163 21 26 26 375 22 535 -7z m-533 -506 c150 -24 271 -75
446 -188 43 -27 76 -52 73 -54 -2 -2 -61 19 -131 47 -146 58 -308 102 -443
120 -100 14 -346 8 -417 -9 -22 -5 -41 -8 -43 -6 -8 7 74 52 126 69 113 38
243 45 389 21z m513 -1829 c0 -3 16 -82 35 -176 41 -198 84 -340 128 -423 61
-117 222 -227 384 -263 60 -13 103 -16 197 -11 299 15 473 117 580 340 53 110
100 241 117 327 11 57 15 63 47 77 44 18 102 9 136 -22 24 -23 46 -80 46 -123
0 -73 82 -362 150 -531 37 -93 42 -111 38 -168 -9 -138 -118 -195 -277 -144
-71 24 -152 27 -280 11 -90 -12 -110 -6 -112 34 -1 14 -4 11 -10 -12 -6 -19
-9 -55 -7 -80 3 -45 5 -48 52 -70 27 -13 45 -27 40 -31 -5 -4 -56 -23 -114
-41 -192 -59 -319 -137 -435 -264 -96 -106 -175 -167 -252 -196 -73 -27 -157
-28 -215 -2 -37 18 -40 20 -17 21 37 1 122 32 112 41 -4 3 -30 15 -58 25 -241
85 -457 291 -595 565 -51 101 -112 284 -135 400 -17 94 -41 609 -28 620 24 22
473 112 473 96z m2140 -802 c61 -16 134 -28 204 -31 l109 -6 -6 -91 c-9 -152
-61 -356 -127 -503 l-28 -61 -50 48 c-63 61 -121 95 -250 146 l-102 40 54 38
c93 64 112 147 77 326 -26 133 -26 134 2 126 12 -4 65 -18 117 -32z m-587
-969 c69 -13 86 -13 140 -1 l62 15 100 -51 c95 -48 167 -92 262 -162 23 -17
42 -34 43 -37 0 -8 -129 7 -181 21 -24 7 -65 21 -90 32 l-46 19 -39 -20 c-34
-18 -56 -21 -174 -21 -84 0 -156 5 -189 14 -47 12 -60 12 -95 -1 -112 -39
-281 -56 -396 -39 l-55 9 65 22 c36 12 151 65 255 118 208 105 212 106 338 82z
m187 -691 c54 -125 85 -432 60 -593 -7 -44 -15 -81 -19 -81 -3 0 -8 78 -9 173
-2 94 -8 201 -13 237 -14 89 -54 266 -73 319 -9 24 -16 48 -16 55 0 17 48 -58
70 -110z m528 -417 c4 -107 1 -142 -17 -222 -13 -52 -27 -97 -32 -101 -6 -3
-8 4 -4 18 13 57 25 215 26 343 0 179 20 152 27 -38z"/>
<path d="M1982 9159 c-29 -5 -88 -23 -132 -40 -205 -79 -350 -233 -427 -454
-25 -72 -28 -93 -28 -215 0 -154 11 -202 77 -340 34 -71 56 -100 135 -179 52
-51 91 -96 86 -100 -4 -4 -30 -16 -56 -25 -27 -10 -67 -32 -90 -50 -48 -36
-97 -104 -90 -123 3 -8 -3 -13 -16 -13 -52 0 -121 -61 -162 -142 -63 -123 -14
-300 96 -352 l35 -17 0 -1583 0 -1584 -30 -12 c-38 -16 -95 -78 -115 -126 -20
-47 -19 -128 1 -188 22 -63 106 -156 143 -156 32 0 56 -14 47 -28 -8 -14 28
-115 68 -186 131 -233 370 -368 625 -353 221 13 399 115 523 297 63 93 112
211 102 243 -7 22 10 37 43 37 87 0 159 197 120 331 -20 68 -70 139 -97 139
-20 0 -20 8 -20 1585 l0 1585 34 14 c71 30 135 162 122 253 -15 112 -113 243
-181 243 -15 0 -25 10 -33 34 -30 83 -113 156 -176 156 -38 0 -43 20 -10 44
206 148 326 421 293 664 -53 387 -359 655 -744 651 -49 -1 -114 -5 -143 -10z
m-15 -336 c-89 -47 -155 -121 -212 -236 -49 -99 -80 -229 -72 -299 3 -21 3
-38 1 -38 -3 0 -18 21 -34 47 -35 55 -38 103 -14 220 48 233 155 341 339 342
l60 0 -68 -36z m564 -1372 c24 -30 24 -53 -1 -76 -19 -17 -53 -20 -418 -28
-483 -10 -564 -8 -592 18 -37 34 -20 79 40 104 16 7 188 10 488 8 l464 -2 19
-24z m-46 -339 c-6 -5 -183 -143 -395 -307 -212 -164 -404 -314 -427 -333
l-43 -34 0 341 0 341 437 0 c240 0 433 -4 428 -8z m125 -944 l0 -343 -457
-355 c-251 -195 -473 -368 -494 -383 l-39 -29 0 344 1 343 197 152 c108 83
330 255 492 382 162 127 296 230 298 231 1 0 2 -154 2 -342z m-32 -1770 c-18
-14 -155 -121 -304 -237 l-272 -211 -191 0 -191 0 0 169 0 169 183 143 c291
228 380 297 597 469 l205 161 3 -318 3 -318 -33 -27z m-86 -675 c18 -19 20
-27 12 -50 l-9 -28 -335 -8 c-184 -4 -403 -6 -486 -5 -133 3 -155 5 -173 22
-27 24 -27 50 0 77 20 20 27 20 494 17 l474 -3 23 -22z"/>
<path d="M3530 6240 c0 -42 37 -200 69 -297 30 -92 66 -171 95 -208 15 -20 15
-20 16 5 0 59 -24 211 -46 289 -26 88 -54 143 -104 201 -29 33 -30 34 -30 10z"/>
<path d="M1847 2505 c-185 -47 -339 -179 -432 -370 -61 -124 -84 -228 -92
-405 -14 -336 52 -556 217 -720 127 -128 261 -184 440 -184 160 0 256 37 342
133 l45 50 20 -72 19 -72 100 0 99 0 0 445 0 445 -289 3 c-205 2 -293 -1 -302
-9 -18 -15 -20 -239 -2 -257 8 -8 53 -12 136 -12 l124 0 -4 -97 c-3 -89 -6
-102 -32 -141 -61 -90 -203 -126 -320 -82 -147 56 -222 208 -233 470 -11 280
58 466 200 534 157 76 297 24 385 -141 18 -35 37 -63 41 -63 30 0 276 51 284
59 7 7 6 30 -3 68 -44 200 -161 336 -344 401 -60 22 -92 26 -206 29 -94 2
-153 -2 -193 -12z"/>
<path d="M5225 2505 c-268 -59 -454 -249 -527 -540 -20 -79 -23 -115 -23 -295
0 -180 3 -215 22 -285 48 -176 102 -277 198 -370 110 -107 235 -168 387 -187
80 -10 111 -9 191 4 272 44 472 236 548 524 39 151 36 456 -7 620 -18 70 -74
191 -118 259 -51 76 -161 175 -243 218 -119 62 -288 83 -428 52z m243 -326
c93 -27 169 -135 209 -294 24 -99 24 -364 -1 -455 -54 -197 -146 -283 -306
-284 -63 -1 -83 4 -127 27 -100 52 -156 136 -195 290 -18 71 -20 102 -15 247
4 130 9 177 25 220 41 117 79 172 155 230 50 38 164 47 255 19z"/>
<path d="M6855 2514 c-169 -27 -328 -126 -431 -270 -48 -67 -113 -214 -133
-299 -35 -156 -36 -377 -1 -554 24 -121 98 -273 172 -355 69 -77 180 -149 282
-183 69 -22 99 -26 201 -27 177 0 284 35 420 137 122 92 210 238 246 411 30
138 36 364 14 501 -52 329 -224 549 -485 621 -56 15 -231 26 -285 18z m232
-345 c73 -35 124 -114 164 -251 27 -95 37 -324 19 -444 -28 -192 -134 -316
-283 -331 -162 -17 -292 101 -344 312 -24 100 -24 335 1 430 33 126 85 214
156 265 72 51 203 60 287 19z"/>
<path d="M7970 2490 l-75 -5 0 -810 0 -810 170 0 170 0 5 251 5 251 70 77 70
77 169 -323 c93 -178 174 -326 180 -330 6 -5 90 -7 186 -5 152 2 175 4 178 18
2 9 -64 144 -146 300 -82 156 -190 363 -240 459 l-90 175 85 120 c182 257 355
524 350 539 -5 14 -33 16 -190 16 l-184 0 -124 -192 c-67 -106 -166 -253 -218
-327 l-96 -134 -3 322 c-2 244 -5 323 -15 326 -19 8 -175 10 -257 5z"/>
<path d="M3655 2478 c-3 -7 -4 -373 -3 -813 l3 -800 450 0 450 0 0 145 0 145
-282 3 -283 2 -2 663 -3 662 -163 3 c-124 2 -164 0 -167 -10z"/>
<path d="M2824 1787 c-2 -7 -3 -78 -2 -157 l3 -145 279 -3 c197 -2 283 1 292
9 11 9 14 44 14 144 0 74 -3 140 -6 149 -5 14 -40 16 -290 16 -224 0 -286 -3
-290 -13z"/>
</g>
</svg>
